<mxfile host="app.diagrams.net" modified="2021-03-13T09:01:22.518Z" agent="5.0 (Windows NT 10.0; Win64; x64) AppleWebKit/537.36 (KHTML, like Gecko) Chrome/88.0.4324.150 Safari/537.36" etag="xzm50geOACsxPSwnoNDr" version="14.4.4" type="github">
  <diagram id="2mRmovC9B7FMBEvFYG--" name="Page-1">
    <mxGraphModel dx="1102" dy="620" grid="1" gridSize="10" guides="1" tooltips="1" connect="1" arrows="1" fold="1" page="1" pageScale="1" pageWidth="827" pageHeight="1169" math="0" shadow="0">
      <root>
        <mxCell id="0" />
        <mxCell id="1" parent="0" />
        <mxCell id="r0h4-J2ntf35ozQJ5Kfr-1" value="数据源" style="shape=cylinder3;whiteSpace=wrap;html=1;boundedLbl=1;backgroundOutline=1;size=15;" parent="1" vertex="1">
          <mxGeometry x="50" y="120" width="60" height="80" as="geometry" />
        </mxCell>
        <mxCell id="r0h4-J2ntf35ozQJ5Kfr-3" value="map" style="rounded=0;whiteSpace=wrap;html=1;" parent="1" vertex="1">
          <mxGeometry x="280" y="140" width="120" height="60" as="geometry" />
        </mxCell>
        <mxCell id="r0h4-J2ntf35ozQJ5Kfr-5" value="数据源" style="shape=cylinder3;whiteSpace=wrap;html=1;boundedLbl=1;backgroundOutline=1;size=15;" parent="1" vertex="1">
          <mxGeometry x="50" y="270" width="60" height="80" as="geometry" />
        </mxCell>
        <mxCell id="r0h4-J2ntf35ozQJ5Kfr-6" value="map" style="rounded=0;whiteSpace=wrap;html=1;" parent="1" vertex="1">
          <mxGeometry x="280" y="290" width="120" height="60" as="geometry" />
        </mxCell>
        <mxCell id="r0h4-J2ntf35ozQJ5Kfr-7" value="" style="endArrow=classic;html=1;entryX=0;entryY=0.5;entryDx=0;entryDy=0;exitX=1;exitY=0;exitDx=0;exitDy=52.5;exitPerimeter=0;" parent="1" source="r0h4-J2ntf35ozQJ5Kfr-1" target="r0h4-J2ntf35ozQJ5Kfr-3" edge="1">
          <mxGeometry width="50" height="50" relative="1" as="geometry">
            <mxPoint x="120" y="200" as="sourcePoint" />
            <mxPoint x="170" y="150" as="targetPoint" />
          </mxGeometry>
        </mxCell>
        <mxCell id="r0h4-J2ntf35ozQJ5Kfr-8" value="1，100，9527&lt;br&gt;2，180，9527&lt;br&gt;6，88，666" style="edgeLabel;html=1;align=left;verticalAlign=middle;resizable=0;points=[];" parent="r0h4-J2ntf35ozQJ5Kfr-7" vertex="1" connectable="0">
          <mxGeometry x="-0.2394" y="3" relative="1" as="geometry">
            <mxPoint x="-22.97" y="-28.549999999999997" as="offset" />
          </mxGeometry>
        </mxCell>
        <mxCell id="r0h4-J2ntf35ozQJ5Kfr-10" value="" style="endArrow=classic;html=1;entryX=0;entryY=0.5;entryDx=0;entryDy=0;" parent="1" target="r0h4-J2ntf35ozQJ5Kfr-6" edge="1">
          <mxGeometry width="50" height="50" relative="1" as="geometry">
            <mxPoint x="111" y="320" as="sourcePoint" />
            <mxPoint x="190" y="290" as="targetPoint" />
          </mxGeometry>
        </mxCell>
        <mxCell id="r0h4-J2ntf35ozQJ5Kfr-13" value="3，55，9527&lt;br&gt;4，147，360&lt;br&gt;5，55，360" style="edgeLabel;html=1;align=left;verticalAlign=middle;resizable=0;points=[];" parent="r0h4-J2ntf35ozQJ5Kfr-10" vertex="1" connectable="0">
          <mxGeometry x="-0.1606" y="3" relative="1" as="geometry">
            <mxPoint x="-27.82" y="-22.81" as="offset" />
          </mxGeometry>
        </mxCell>
        <mxCell id="r0h4-J2ntf35ozQJ5Kfr-15" value="" style="endArrow=classic;html=1;exitX=1;exitY=0.5;exitDx=0;exitDy=0;" parent="1" source="r0h4-J2ntf35ozQJ5Kfr-3" edge="1">
          <mxGeometry width="50" height="50" relative="1" as="geometry">
            <mxPoint x="440" y="210" as="sourcePoint" />
            <mxPoint x="490" y="170" as="targetPoint" />
          </mxGeometry>
        </mxCell>
        <mxCell id="r0h4-J2ntf35ozQJ5Kfr-16" value="" style="endArrow=classic;html=1;exitX=1;exitY=0.5;exitDx=0;exitDy=0;entryX=0;entryY=0.5;entryDx=0;entryDy=0;" parent="1" source="r0h4-J2ntf35ozQJ5Kfr-6" target="r0h4-J2ntf35ozQJ5Kfr-20" edge="1">
          <mxGeometry width="50" height="50" relative="1" as="geometry">
            <mxPoint x="400" y="340" as="sourcePoint" />
            <mxPoint x="480" y="310" as="targetPoint" />
          </mxGeometry>
        </mxCell>
        <mxCell id="r0h4-J2ntf35ozQJ5Kfr-17" value="&lt;div style=&quot;text-align: left&quot;&gt;&lt;span&gt;9527 → (&amp;lt;1,100&amp;gt;，&amp;lt;2,180&amp;gt;)&lt;/span&gt;&lt;/div&gt;&lt;div style=&quot;text-align: left&quot;&gt;&lt;span&gt;666 → (&amp;lt;6，88&amp;gt;)&lt;/span&gt;&lt;/div&gt;" style="rounded=0;whiteSpace=wrap;html=1;" parent="1" vertex="1">
          <mxGeometry x="480" y="140" width="210" height="60" as="geometry" />
        </mxCell>
        <mxCell id="r0h4-J2ntf35ozQJ5Kfr-20" value="&lt;div style=&quot;text-align: left&quot;&gt;&lt;span&gt;9527→ (&amp;lt;3，55&amp;gt;)&lt;/span&gt;&lt;br&gt;&lt;/div&gt;&lt;div style=&quot;text-align: left&quot;&gt;360 → (&amp;lt;4,147&amp;gt;，&amp;lt;5,55&amp;gt;)&lt;span&gt;&lt;br&gt;&lt;/span&gt;&lt;/div&gt;" style="rounded=0;whiteSpace=wrap;html=1;" parent="1" vertex="1">
          <mxGeometry x="480" y="290" width="210" height="60" as="geometry" />
        </mxCell>
        <mxCell id="r0h4-J2ntf35ozQJ5Kfr-21" value="&lt;div style=&quot;text-align: left&quot;&gt;&lt;span&gt;9527 → (&amp;lt;1,100&amp;gt;，&amp;lt;2,180&amp;gt;)&lt;/span&gt;&lt;/div&gt;&lt;div style=&quot;text-align: left&quot;&gt;&lt;span&gt;666 → (&amp;lt;6，88&amp;gt;)&lt;/span&gt;&lt;/div&gt;" style="rounded=0;whiteSpace=wrap;html=1;" parent="1" vertex="1">
          <mxGeometry x="50" y="430" width="210" height="60" as="geometry" />
        </mxCell>
        <mxCell id="r0h4-J2ntf35ozQJ5Kfr-22" value="&lt;div style=&quot;text-align: left&quot;&gt;&lt;span&gt;9527→ (&amp;lt;3，55&amp;gt;)&lt;/span&gt;&lt;br&gt;&lt;/div&gt;&lt;div style=&quot;text-align: left&quot;&gt;360 → (&amp;lt;4,147&amp;gt;，&amp;lt;5,55&amp;gt;)&lt;span&gt;&lt;br&gt;&lt;/span&gt;&lt;/div&gt;" style="rounded=0;whiteSpace=wrap;html=1;" parent="1" vertex="1">
          <mxGeometry x="50" y="580" width="210" height="60" as="geometry" />
        </mxCell>
        <mxCell id="r0h4-J2ntf35ozQJ5Kfr-23" value="" style="endArrow=classic;html=1;exitX=1;exitY=0.5;exitDx=0;exitDy=0;entryX=0;entryY=0.5;entryDx=0;entryDy=0;" parent="1" source="r0h4-J2ntf35ozQJ5Kfr-21" target="r0h4-J2ntf35ozQJ5Kfr-25" edge="1">
          <mxGeometry width="50" height="50" relative="1" as="geometry">
            <mxPoint x="210" y="570" as="sourcePoint" />
            <mxPoint x="340" y="520" as="targetPoint" />
          </mxGeometry>
        </mxCell>
        <mxCell id="r0h4-J2ntf35ozQJ5Kfr-24" value="" style="endArrow=classic;html=1;exitX=1;exitY=0.5;exitDx=0;exitDy=0;entryX=0.017;entryY=0.617;entryDx=0;entryDy=0;entryPerimeter=0;" parent="1" source="r0h4-J2ntf35ozQJ5Kfr-22" target="r0h4-J2ntf35ozQJ5Kfr-25" edge="1">
          <mxGeometry width="50" height="50" relative="1" as="geometry">
            <mxPoint x="290" y="630" as="sourcePoint" />
            <mxPoint x="340" y="580" as="targetPoint" />
          </mxGeometry>
        </mxCell>
        <mxCell id="r0h4-J2ntf35ozQJ5Kfr-25" value="" style="rounded=0;whiteSpace=wrap;html=1;align=left;" parent="1" vertex="1">
          <mxGeometry x="354" y="495" width="256" height="90" as="geometry" />
        </mxCell>
        <mxCell id="r0h4-J2ntf35ozQJ5Kfr-26" value="&lt;div style=&quot;text-align: justify&quot;&gt;9527 → (&amp;lt;1,100&amp;gt;，&amp;lt;2,180&amp;gt;，&lt;span&gt;&amp;lt;3，55&amp;gt;&lt;/span&gt;&lt;span&gt;)&lt;/span&gt;&lt;/div&gt;&lt;div style=&quot;text-align: justify&quot;&gt;360 → (&amp;lt;4,147&amp;gt;，&amp;lt;5,55&amp;gt;)&lt;/div&gt;&lt;div style=&quot;text-align: justify&quot;&gt;666 → (&amp;lt;6，88&amp;gt;)&lt;/div&gt;" style="text;html=1;resizable=0;autosize=1;align=center;verticalAlign=middle;points=[];fillColor=none;strokeColor=none;rounded=0;" parent="1" vertex="1">
          <mxGeometry x="367" y="510" width="230" height="50" as="geometry" />
        </mxCell>
        <mxCell id="r0h4-J2ntf35ozQJ5Kfr-30" value="" style="edgeStyle=orthogonalEdgeStyle;rounded=0;orthogonalLoop=1;jettySize=auto;html=1;" parent="1" source="r0h4-J2ntf35ozQJ5Kfr-27" target="r0h4-J2ntf35ozQJ5Kfr-29" edge="1">
          <mxGeometry relative="1" as="geometry" />
        </mxCell>
        <mxCell id="r0h4-J2ntf35ozQJ5Kfr-27" value="" style="rounded=0;whiteSpace=wrap;html=1;align=left;" parent="1" vertex="1">
          <mxGeometry x="50" y="720" width="256" height="90" as="geometry" />
        </mxCell>
        <mxCell id="r0h4-J2ntf35ozQJ5Kfr-28" value="&lt;div style=&quot;text-align: justify&quot;&gt;9527 → (&amp;lt;1,100&amp;gt;，&amp;lt;2,180&amp;gt;，&lt;span&gt;&amp;lt;3，55&amp;gt;&lt;/span&gt;&lt;span&gt;)&lt;/span&gt;&lt;/div&gt;&lt;div style=&quot;text-align: justify&quot;&gt;360 → (&amp;lt;4,147&amp;gt;，&amp;lt;5,55&amp;gt;)&lt;/div&gt;&lt;div style=&quot;text-align: justify&quot;&gt;666 → (&amp;lt;6，88&amp;gt;)&lt;/div&gt;" style="text;html=1;resizable=0;autosize=1;align=center;verticalAlign=middle;points=[];fillColor=none;strokeColor=none;rounded=0;" parent="1" vertex="1">
          <mxGeometry x="63" y="740" width="230" height="50" as="geometry" />
        </mxCell>
        <mxCell id="r0h4-J2ntf35ozQJ5Kfr-29" value="9527 → 2&lt;br&gt;360 → 4&lt;br&gt;666 → 6" style="rounded=0;whiteSpace=wrap;html=1;align=center;" parent="1" vertex="1">
          <mxGeometry x="386" y="720" width="154" height="90" as="geometry" />
        </mxCell>
        <mxCell id="r0h4-J2ntf35ozQJ5Kfr-33" value="" style="edgeStyle=orthogonalEdgeStyle;rounded=0;orthogonalLoop=1;jettySize=auto;html=1;" parent="1" source="r0h4-J2ntf35ozQJ5Kfr-31" target="r0h4-J2ntf35ozQJ5Kfr-32" edge="1">
          <mxGeometry relative="1" as="geometry" />
        </mxCell>
        <mxCell id="r0h4-J2ntf35ozQJ5Kfr-36" value="提交作业" style="edgeLabel;html=1;align=center;verticalAlign=middle;resizable=0;points=[];" parent="r0h4-J2ntf35ozQJ5Kfr-33" vertex="1" connectable="0">
          <mxGeometry x="-0.2364" relative="1" as="geometry">
            <mxPoint as="offset" />
          </mxGeometry>
        </mxCell>
        <mxCell id="r0h4-J2ntf35ozQJ5Kfr-31" value="JobClient" style="rounded=0;whiteSpace=wrap;html=1;" parent="1" vertex="1">
          <mxGeometry x="40" y="960" width="120" height="60" as="geometry" />
        </mxCell>
        <mxCell id="r0h4-J2ntf35ozQJ5Kfr-35" value="" style="edgeStyle=orthogonalEdgeStyle;rounded=0;orthogonalLoop=1;jettySize=auto;html=1;" parent="1" source="r0h4-J2ntf35ozQJ5Kfr-32" target="r0h4-J2ntf35ozQJ5Kfr-34" edge="1">
          <mxGeometry relative="1" as="geometry" />
        </mxCell>
        <mxCell id="r0h4-J2ntf35ozQJ5Kfr-37" value="申请资源" style="edgeLabel;html=1;align=center;verticalAlign=middle;resizable=0;points=[];" parent="r0h4-J2ntf35ozQJ5Kfr-35" vertex="1" connectable="0">
          <mxGeometry x="-0.1852" y="1" relative="1" as="geometry">
            <mxPoint as="offset" />
          </mxGeometry>
        </mxCell>
        <mxCell id="r0h4-J2ntf35ozQJ5Kfr-32" value="JobTracker" style="whiteSpace=wrap;html=1;rounded=0;" parent="1" vertex="1">
          <mxGeometry x="270" y="960" width="120" height="60" as="geometry" />
        </mxCell>
        <mxCell id="r0h4-J2ntf35ozQJ5Kfr-34" value="ResourceManager" style="whiteSpace=wrap;html=1;rounded=0;" parent="1" vertex="1">
          <mxGeometry x="525" y="960" width="120" height="60" as="geometry" />
        </mxCell>
        <mxCell id="r0h4-J2ntf35ozQJ5Kfr-39" value="JobTracker" style="shape=umlLifeline;perimeter=lifelinePerimeter;whiteSpace=wrap;html=1;container=1;collapsible=0;recursiveResize=0;outlineConnect=0;" parent="1" vertex="1">
          <mxGeometry x="206" y="1100" width="100" height="440" as="geometry" />
        </mxCell>
        <mxCell id="r0h4-J2ntf35ozQJ5Kfr-43" value="" style="html=1;points=[];perimeter=orthogonalPerimeter;" parent="r0h4-J2ntf35ozQJ5Kfr-39" vertex="1">
          <mxGeometry x="45" y="69" width="10" height="61" as="geometry" />
        </mxCell>
        <mxCell id="r0h4-J2ntf35ozQJ5Kfr-40" value="ResourceManager" style="shape=umlLifeline;perimeter=lifelinePerimeter;whiteSpace=wrap;html=1;container=1;collapsible=0;recursiveResize=0;outlineConnect=0;" parent="1" vertex="1">
          <mxGeometry x="367" y="1100" width="100" height="440" as="geometry" />
        </mxCell>
        <mxCell id="r0h4-J2ntf35ozQJ5Kfr-47" value="" style="html=1;points=[];perimeter=orthogonalPerimeter;" parent="r0h4-J2ntf35ozQJ5Kfr-40" vertex="1">
          <mxGeometry x="46" y="90" width="10" height="40" as="geometry" />
        </mxCell>
        <mxCell id="r0h4-J2ntf35ozQJ5Kfr-54" value="" style="html=1;points=[];perimeter=orthogonalPerimeter;" parent="r0h4-J2ntf35ozQJ5Kfr-40" vertex="1">
          <mxGeometry x="46" y="150" width="10" height="40" as="geometry" />
        </mxCell>
        <mxCell id="r0h4-J2ntf35ozQJ5Kfr-55" value="分配资源" style="edgeStyle=orthogonalEdgeStyle;html=1;align=left;spacingLeft=2;endArrow=block;rounded=0;entryX=1;entryY=0;" parent="r0h4-J2ntf35ozQJ5Kfr-40" target="r0h4-J2ntf35ozQJ5Kfr-54" edge="1">
          <mxGeometry x="0.3846" relative="1" as="geometry">
            <mxPoint x="51" y="150" as="sourcePoint" />
            <Array as="points">
              <mxPoint x="51" y="130" />
              <mxPoint x="76" y="130" />
              <mxPoint x="76" y="150" />
            </Array>
            <mxPoint as="offset" />
          </mxGeometry>
        </mxCell>
        <mxCell id="r0h4-J2ntf35ozQJ5Kfr-41" value="&lt;span&gt;JobClient&lt;/span&gt;" style="shape=umlActor;verticalLabelPosition=bottom;verticalAlign=top;html=1;" parent="1" vertex="1">
          <mxGeometry x="100" y="1160" width="30" height="60" as="geometry" />
        </mxCell>
        <mxCell id="r0h4-J2ntf35ozQJ5Kfr-44" value="提交作业" style="html=1;verticalAlign=bottom;startArrow=oval;endArrow=block;startSize=8;exitX=1;exitY=0.3333333333333333;exitDx=0;exitDy=0;exitPerimeter=0;" parent="1" source="r0h4-J2ntf35ozQJ5Kfr-41" target="r0h4-J2ntf35ozQJ5Kfr-43" edge="1">
          <mxGeometry relative="1" as="geometry">
            <mxPoint x="195" y="1180" as="sourcePoint" />
          </mxGeometry>
        </mxCell>
        <mxCell id="r0h4-J2ntf35ozQJ5Kfr-48" value="申请资源" style="html=1;verticalAlign=bottom;endArrow=block;entryX=0;entryY=0;" parent="1" source="r0h4-J2ntf35ozQJ5Kfr-43" target="r0h4-J2ntf35ozQJ5Kfr-47" edge="1">
          <mxGeometry relative="1" as="geometry">
            <mxPoint x="261" y="1205.009" as="sourcePoint" />
          </mxGeometry>
        </mxCell>
        <mxCell id="r0h4-J2ntf35ozQJ5Kfr-50" value="DataNode" style="shape=umlLifeline;perimeter=lifelinePerimeter;whiteSpace=wrap;html=1;container=1;collapsible=0;recursiveResize=0;outlineConnect=0;" parent="1" vertex="1">
          <mxGeometry x="810" y="1100" width="100" height="460" as="geometry" />
        </mxCell>
        <mxCell id="r0h4-J2ntf35ozQJ5Kfr-51" value="" style="html=1;points=[];perimeter=orthogonalPerimeter;" parent="r0h4-J2ntf35ozQJ5Kfr-50" vertex="1">
          <mxGeometry x="45" y="110" width="10" height="30" as="geometry" />
        </mxCell>
        <mxCell id="r0h4-J2ntf35ozQJ5Kfr-71" value="" style="html=1;points=[];perimeter=orthogonalPerimeter;" parent="r0h4-J2ntf35ozQJ5Kfr-50" vertex="1">
          <mxGeometry x="45" y="210" width="10" height="20" as="geometry" />
        </mxCell>
        <mxCell id="r0h4-J2ntf35ozQJ5Kfr-74" value="" style="html=1;points=[];perimeter=orthogonalPerimeter;" parent="r0h4-J2ntf35ozQJ5Kfr-50" vertex="1">
          <mxGeometry x="45" y="330" width="10" height="20" as="geometry" />
        </mxCell>
        <mxCell id="r0h4-J2ntf35ozQJ5Kfr-53" value="上传任务 Jar 包" style="html=1;verticalAlign=bottom;endArrow=block;exitX=0.9;exitY=0.787;exitDx=0;exitDy=0;exitPerimeter=0;" parent="1" source="r0h4-J2ntf35ozQJ5Kfr-43" target="r0h4-J2ntf35ozQJ5Kfr-50" edge="1">
          <mxGeometry x="0.3011" width="80" relative="1" as="geometry">
            <mxPoint x="290" y="1230" as="sourcePoint" />
            <mxPoint x="370" y="1230" as="targetPoint" />
            <mxPoint as="offset" />
          </mxGeometry>
        </mxCell>
        <mxCell id="r0h4-J2ntf35ozQJ5Kfr-56" value="MRAppMaster" style="shape=umlLifeline;perimeter=lifelinePerimeter;whiteSpace=wrap;html=1;container=1;collapsible=0;recursiveResize=0;outlineConnect=0;" parent="1" vertex="1">
          <mxGeometry x="525" y="1100" width="100" height="450" as="geometry" />
        </mxCell>
        <mxCell id="r0h4-J2ntf35ozQJ5Kfr-57" value="" style="html=1;points=[];perimeter=orthogonalPerimeter;" parent="r0h4-J2ntf35ozQJ5Kfr-56" vertex="1">
          <mxGeometry x="45" y="180" width="10" height="80" as="geometry" />
        </mxCell>
        <mxCell id="r0h4-J2ntf35ozQJ5Kfr-64" value="" style="html=1;points=[];perimeter=orthogonalPerimeter;" parent="r0h4-J2ntf35ozQJ5Kfr-56" vertex="1">
          <mxGeometry x="45" y="290" width="10" height="20" as="geometry" />
        </mxCell>
        <mxCell id="r0h4-J2ntf35ozQJ5Kfr-65" value="shuffle" style="edgeStyle=orthogonalEdgeStyle;html=1;align=left;spacingLeft=2;endArrow=block;rounded=0;entryX=1;entryY=0;" parent="r0h4-J2ntf35ozQJ5Kfr-56" target="r0h4-J2ntf35ozQJ5Kfr-64" edge="1">
          <mxGeometry relative="1" as="geometry">
            <mxPoint x="50" y="280" as="sourcePoint" />
            <Array as="points">
              <mxPoint x="50" y="270" />
              <mxPoint x="75" y="270" />
              <mxPoint x="75" y="290" />
            </Array>
          </mxGeometry>
        </mxCell>
        <mxCell id="r0h4-J2ntf35ozQJ5Kfr-69" value="" style="html=1;points=[];perimeter=orthogonalPerimeter;" parent="r0h4-J2ntf35ozQJ5Kfr-56" vertex="1">
          <mxGeometry x="45" y="320" width="10" height="80" as="geometry" />
        </mxCell>
        <mxCell id="r0h4-J2ntf35ozQJ5Kfr-58" value="NodeManager" style="shape=umlLifeline;perimeter=lifelinePerimeter;whiteSpace=wrap;html=1;container=1;collapsible=0;recursiveResize=0;outlineConnect=0;" parent="1" vertex="1">
          <mxGeometry x="670" y="1100" width="100" height="460" as="geometry" />
        </mxCell>
        <mxCell id="r0h4-J2ntf35ozQJ5Kfr-61" value="" style="html=1;points=[];perimeter=orthogonalPerimeter;" parent="r0h4-J2ntf35ozQJ5Kfr-58" vertex="1">
          <mxGeometry x="45" y="200" width="10" height="50" as="geometry" />
        </mxCell>
        <mxCell id="r0h4-J2ntf35ozQJ5Kfr-66" value="" style="html=1;points=[];perimeter=orthogonalPerimeter;" parent="r0h4-J2ntf35ozQJ5Kfr-58" vertex="1">
          <mxGeometry x="45" y="320" width="10" height="80" as="geometry" />
        </mxCell>
        <mxCell id="r0h4-J2ntf35ozQJ5Kfr-60" value="下发作业" style="html=1;verticalAlign=bottom;endArrow=block;exitX=0.9;exitY=0.925;exitDx=0;exitDy=0;exitPerimeter=0;" parent="1" source="r0h4-J2ntf35ozQJ5Kfr-54" target="r0h4-J2ntf35ozQJ5Kfr-56" edge="1">
          <mxGeometry width="80" relative="1" as="geometry">
            <mxPoint x="440" y="1289" as="sourcePoint" />
            <mxPoint x="560" y="1287" as="targetPoint" />
          </mxGeometry>
        </mxCell>
        <mxCell id="r0h4-J2ntf35ozQJ5Kfr-62" value="下发 map 任务" style="html=1;verticalAlign=bottom;endArrow=block;entryX=0;entryY=0;" parent="1" source="r0h4-J2ntf35ozQJ5Kfr-57" target="r0h4-J2ntf35ozQJ5Kfr-61" edge="1">
          <mxGeometry relative="1" as="geometry">
            <mxPoint x="645" y="1310" as="sourcePoint" />
          </mxGeometry>
        </mxCell>
        <mxCell id="r0h4-J2ntf35ozQJ5Kfr-63" value="结果" style="html=1;verticalAlign=bottom;endArrow=open;dashed=1;endSize=8;exitX=0;exitY=0.95;" parent="1" source="r0h4-J2ntf35ozQJ5Kfr-61" edge="1">
          <mxGeometry relative="1" as="geometry">
            <mxPoint x="579" y="1348" as="targetPoint" />
          </mxGeometry>
        </mxCell>
        <mxCell id="r0h4-J2ntf35ozQJ5Kfr-67" value="下发 reduce 任务" style="html=1;verticalAlign=bottom;endArrow=block;entryX=0;entryY=0;" parent="1" target="r0h4-J2ntf35ozQJ5Kfr-66" edge="1">
          <mxGeometry relative="1" as="geometry">
            <mxPoint x="579" y="1420" as="sourcePoint" />
          </mxGeometry>
        </mxCell>
        <mxCell id="r0h4-J2ntf35ozQJ5Kfr-68" value="结果" style="html=1;verticalAlign=bottom;endArrow=open;dashed=1;endSize=8;exitX=0;exitY=0.95;entryX=1.4;entryY=0.938;entryDx=0;entryDy=0;entryPerimeter=0;" parent="1" source="r0h4-J2ntf35ozQJ5Kfr-66" target="r0h4-J2ntf35ozQJ5Kfr-69" edge="1">
          <mxGeometry relative="1" as="geometry">
            <mxPoint x="660" y="1570" as="targetPoint" />
          </mxGeometry>
        </mxCell>
        <mxCell id="r0h4-J2ntf35ozQJ5Kfr-72" value="获取 jar 包" style="html=1;verticalAlign=bottom;endArrow=block;entryX=0;entryY=0;exitX=0.9;exitY=0.2;exitDx=0;exitDy=0;exitPerimeter=0;" parent="1" source="r0h4-J2ntf35ozQJ5Kfr-61" target="r0h4-J2ntf35ozQJ5Kfr-71" edge="1">
          <mxGeometry relative="1" as="geometry">
            <mxPoint x="785" y="1310" as="sourcePoint" />
          </mxGeometry>
        </mxCell>
        <mxCell id="r0h4-J2ntf35ozQJ5Kfr-75" value="获取 jar 包" style="html=1;verticalAlign=bottom;endArrow=block;entryX=0;entryY=0;exitX=1.1;exitY=0.163;exitDx=0;exitDy=0;exitPerimeter=0;" parent="1" source="r0h4-J2ntf35ozQJ5Kfr-66" target="r0h4-J2ntf35ozQJ5Kfr-74" edge="1">
          <mxGeometry relative="1" as="geometry">
            <mxPoint x="785" y="1420" as="sourcePoint" />
          </mxGeometry>
        </mxCell>
        <mxCell id="r0h4-J2ntf35ozQJ5Kfr-77" value="监听作业运行情况" style="html=1;verticalAlign=bottom;endArrow=block;entryX=0.3;entryY=1.025;entryDx=0;entryDy=0;entryPerimeter=0;" parent="1" source="r0h4-J2ntf35ozQJ5Kfr-39" target="r0h4-J2ntf35ozQJ5Kfr-69" edge="1">
          <mxGeometry x="-0.4047" y="2" width="80" relative="1" as="geometry">
            <mxPoint x="260" y="1510" as="sourcePoint" />
            <mxPoint x="510" y="1510" as="targetPoint" />
            <mxPoint as="offset" />
          </mxGeometry>
        </mxCell>
        <mxCell id="JoEqs67mVLygktSXcK7E-1" value="Proxy（代理）" style="shape=umlLifeline;perimeter=lifelinePerimeter;whiteSpace=wrap;html=1;container=1;collapsible=0;recursiveResize=0;outlineConnect=0;" vertex="1" parent="1">
          <mxGeometry x="206" y="1800" width="100" height="480" as="geometry" />
        </mxCell>
        <mxCell id="JoEqs67mVLygktSXcK7E-25" value="" style="html=1;points=[];perimeter=orthogonalPerimeter;" vertex="1" parent="JoEqs67mVLygktSXcK7E-1">
          <mxGeometry x="45" y="160" width="10" height="40" as="geometry" />
        </mxCell>
        <mxCell id="JoEqs67mVLygktSXcK7E-26" value="传入 loader、Service、InvocationHandler&lt;br&gt;调用 newProxyInstance 创建代理" style="edgeStyle=orthogonalEdgeStyle;html=1;align=left;spacingLeft=2;endArrow=block;rounded=0;entryX=1;entryY=0;" edge="1" target="JoEqs67mVLygktSXcK7E-25" parent="JoEqs67mVLygktSXcK7E-1">
          <mxGeometry x="0.3846" y="10" relative="1" as="geometry">
            <mxPoint x="50" y="140" as="sourcePoint" />
            <Array as="points">
              <mxPoint x="75" y="140" />
            </Array>
            <mxPoint as="offset" />
          </mxGeometry>
        </mxCell>
        <mxCell id="JoEqs67mVLygktSXcK7E-42" value="" style="html=1;points=[];perimeter=orthogonalPerimeter;" vertex="1" parent="JoEqs67mVLygktSXcK7E-1">
          <mxGeometry x="44" y="400" width="10" height="80" as="geometry" />
        </mxCell>
        <mxCell id="JoEqs67mVLygktSXcK7E-2" value="InvocationHandler（执行者）" style="shape=umlLifeline;perimeter=lifelinePerimeter;whiteSpace=wrap;html=1;container=1;collapsible=0;recursiveResize=0;outlineConnect=0;" vertex="1" parent="1">
          <mxGeometry x="510" y="1800" width="100" height="460" as="geometry" />
        </mxCell>
        <mxCell id="JoEqs67mVLygktSXcK7E-8" value="" style="html=1;points=[];perimeter=orthogonalPerimeter;" vertex="1" parent="JoEqs67mVLygktSXcK7E-2">
          <mxGeometry x="45" y="90" width="10" height="40" as="geometry" />
        </mxCell>
        <mxCell id="JoEqs67mVLygktSXcK7E-9" value="传入&amp;nbsp;&amp;nbsp;&lt;span style=&quot;font-size: 12px ; text-align: center ; background-color: rgb(248 , 249 , 250)&quot;&gt;Service 实例对象，构建执行器&lt;/span&gt;" style="edgeStyle=orthogonalEdgeStyle;html=1;align=left;spacingLeft=2;endArrow=block;rounded=0;entryX=1;entryY=0;" edge="1" target="JoEqs67mVLygktSXcK7E-8" parent="JoEqs67mVLygktSXcK7E-2">
          <mxGeometry relative="1" as="geometry">
            <mxPoint x="50" y="80" as="sourcePoint" />
            <Array as="points">
              <mxPoint x="75" y="80" />
            </Array>
          </mxGeometry>
        </mxCell>
        <mxCell id="JoEqs67mVLygktSXcK7E-29" value="" style="html=1;points=[];perimeter=orthogonalPerimeter;" vertex="1" parent="JoEqs67mVLygktSXcK7E-2">
          <mxGeometry x="45" y="230" width="10" height="40" as="geometry" />
        </mxCell>
        <mxCell id="JoEqs67mVLygktSXcK7E-34" value="" style="html=1;points=[];perimeter=orthogonalPerimeter;" vertex="1" parent="JoEqs67mVLygktSXcK7E-2">
          <mxGeometry x="45" y="300" width="10" height="130" as="geometry" />
        </mxCell>
        <mxCell id="JoEqs67mVLygktSXcK7E-35" value="调用 invoke 方法" style="edgeStyle=orthogonalEdgeStyle;html=1;align=left;spacingLeft=2;endArrow=block;rounded=0;entryX=1;entryY=0;" edge="1" target="JoEqs67mVLygktSXcK7E-34" parent="JoEqs67mVLygktSXcK7E-2">
          <mxGeometry relative="1" as="geometry">
            <mxPoint x="50" y="280" as="sourcePoint" />
            <Array as="points">
              <mxPoint x="75" y="280" />
            </Array>
          </mxGeometry>
        </mxCell>
        <mxCell id="JoEqs67mVLygktSXcK7E-3" value="Service&lt;br&gt;（服务提供者）" style="shape=umlLifeline;perimeter=lifelinePerimeter;whiteSpace=wrap;html=1;container=1;collapsible=0;recursiveResize=0;outlineConnect=0;" vertex="1" parent="1">
          <mxGeometry x="760" y="1800" width="100" height="430" as="geometry" />
        </mxCell>
        <mxCell id="JoEqs67mVLygktSXcK7E-36" value="" style="html=1;points=[];perimeter=orthogonalPerimeter;" vertex="1" parent="JoEqs67mVLygktSXcK7E-3">
          <mxGeometry x="45" y="350" width="10" height="80" as="geometry" />
        </mxCell>
        <mxCell id="JoEqs67mVLygktSXcK7E-13" value="" style="rounded=0;whiteSpace=wrap;html=1;" vertex="1" parent="1">
          <mxGeometry x="60" y="2338" width="200" height="150" as="geometry" />
        </mxCell>
        <mxCell id="JoEqs67mVLygktSXcK7E-37" value="通过 show 方法对象&lt;br&gt;调用 Service 实例的show 方法" style="html=1;verticalAlign=bottom;endArrow=block;entryX=0;entryY=0;" edge="1" target="JoEqs67mVLygktSXcK7E-36" parent="1">
          <mxGeometry relative="1" as="geometry">
            <mxPoint x="570" y="2150" as="sourcePoint" />
          </mxGeometry>
        </mxCell>
        <mxCell id="JoEqs67mVLygktSXcK7E-38" value="返回结果" style="html=1;verticalAlign=bottom;endArrow=open;dashed=1;endSize=8;exitX=0;exitY=0.95;" edge="1" source="JoEqs67mVLygktSXcK7E-36" parent="1">
          <mxGeometry relative="1" as="geometry">
            <mxPoint x="570" y="2226" as="targetPoint" />
          </mxGeometry>
        </mxCell>
        <mxCell id="JoEqs67mVLygktSXcK7E-41" value="return" style="html=1;verticalAlign=bottom;endArrow=open;dashed=1;endSize=8;exitX=-0.2;exitY=0.954;exitDx=0;exitDy=0;exitPerimeter=0;" edge="1" parent="1" source="JoEqs67mVLygktSXcK7E-34" target="JoEqs67mVLygktSXcK7E-1">
          <mxGeometry relative="1" as="geometry">
            <mxPoint x="500" y="2220" as="sourcePoint" />
            <mxPoint x="420" y="2220" as="targetPoint" />
          </mxGeometry>
        </mxCell>
        <mxCell id="JoEqs67mVLygktSXcK7E-43" value="调用 show 方法" style="html=1;verticalAlign=bottom;endArrow=block;" edge="1" parent="1" source="JoEqs67mVLygktSXcK7E-1" target="JoEqs67mVLygktSXcK7E-2">
          <mxGeometry width="80" relative="1" as="geometry">
            <mxPoint x="250" y="2039.5" as="sourcePoint" />
            <mxPoint x="330" y="2039.5" as="targetPoint" />
          </mxGeometry>
        </mxCell>
        <mxCell id="JoEqs67mVLygktSXcK7E-50" value="&lt;p style=&quot;margin: 0px ; margin-top: 4px ; text-align: center&quot;&gt;«interface»&lt;br&gt;Service&lt;br&gt;&lt;/p&gt;&lt;hr size=&quot;1&quot;&gt;&lt;p style=&quot;margin: 0px ; margin-left: 4px&quot;&gt;&lt;br&gt;&lt;/p&gt;&lt;hr size=&quot;1&quot;&gt;&lt;p style=&quot;margin: 0px ; margin-left: 4px&quot;&gt;+ show(): void&lt;br&gt;&lt;/p&gt;" style="verticalAlign=top;align=left;overflow=fill;fontSize=12;fontFamily=Helvetica;html=1;" vertex="1" parent="1">
          <mxGeometry x="910" y="1860" width="160" height="90" as="geometry" />
        </mxCell>
      </root>
    </mxGraphModel>
  </diagram>
</mxfile>
